<svg width="479" height="498" viewBox="0 0 479 498" fill="none" xmlns="http://www.w3.org/2000/svg">
<path fill-rule="evenodd" clip-rule="evenodd" d="M0 129.578C0 58.0138 58.0139 0 129.578 0H349.422C420.986 0 479 58.0138 479 129.578C479 153.179 472.69 175.307 461.665 194.366C459.244 190.181 456.596 186.144 453.737 182.272C430.14 204.18 392.202 218.389 349.423 218.389H129.577C86.7977 218.389 48.8602 204.18 25.2628 182.272C22.4042 186.144 19.756 190.181 17.3352 194.366C6.31007 175.307 0 153.179 0 129.578ZM23.8848 334.136C23.2901 333.299 22.705 332.455 22.1298 331.603C8.1582 310.922 0 285.992 0 259.155C0 235.553 6.31007 213.425 17.3352 194.366C39.7398 233.097 81.6156 259.155 129.578 259.155H349.422C397.384 259.155 439.26 233.097 461.665 194.366C472.69 213.425 479 235.553 479 259.155C479 287.096 470.156 312.972 455.115 334.136C451.61 329.203 447.767 324.526 443.622 320.139C419.999 337.274 386.533 347.966 349.423 347.966H129.577C92.4671 347.966 59.0007 337.274 35.3781 320.139C31.2327 324.526 27.3904 329.203 23.8848 334.136ZM0 409.116C0 381.175 8.84376 355.299 23.8848 334.136C47.3672 367.177 85.9551 388.733 129.578 388.733H349.422C393.045 388.733 431.633 367.177 455.115 334.136C470.156 355.299 479 381.175 479 409.116C479 458.165 420.986 497.927 349.423 497.927H129.577C58.0136 497.927 0 458.165 0 409.116Z" fill="#AC2954"/>
</svg>
