<svg width="2372" height="539" viewBox="0 0 2372 539" fill="none" xmlns="http://www.w3.org/2000/svg">
<path d="M584.18 171.254C584.18 162.849 588.705 158.324 597.11 158.324H671.244C721.348 158.324 750.334 189.249 750.334 233.104C750.334 277.174 720.809 307.453 670.058 307.453H630.837V366.07C630.837 374.474 626.311 379 617.906 379H597.11C588.705 379 584.18 374.474 584.18 366.07V171.254ZM630.837 270.063H662.516C689.238 270.063 702.276 254.977 702.276 233.104C702.276 211.122 689.238 196.468 662.3 196.468H630.837V270.063ZM822.527 382.125C790.956 382.125 767.574 365.531 767.574 332.774C767.574 295.815 796.99 284.825 829.747 281.808C858.517 279.006 869.831 277.605 869.831 266.938V266.291C869.831 252.715 860.887 244.849 845.263 244.849C833.949 244.849 825.868 248.62 820.803 254.546C816.062 260.365 812.399 263.705 805.072 263.059L788.155 261.658C778.996 260.904 774.147 254.87 778.134 246.573C788.693 224.591 812.291 211.338 845.479 211.338C882.33 211.338 915.733 227.932 915.733 267.369V366.07C915.733 374.474 911.207 379 902.803 379H885.131C876.727 379 872.201 374.905 872.201 367.471V356.049H870.908C862.827 371.457 846.987 382.125 822.527 382.125ZM811.429 331.266C811.429 343.873 821.558 350.446 835.673 350.446C855.823 350.446 870.154 337.192 870.154 319.844V302.281C864.659 305.944 848.28 308.315 838.259 309.715C822.096 311.978 811.429 318.336 811.429 331.266ZM951.345 226.423C951.345 218.018 955.871 213.493 964.275 213.493H982.916C991.321 213.493 995.847 218.018 995.847 226.423V242.37H997.571C1003.6 221.897 1018.8 211.122 1037.33 211.122C1038.09 211.122 1038.95 211.122 1039.81 211.23C1047.78 211.553 1051.77 216.833 1051.77 224.807V239.569C1051.77 248.404 1048.32 252.391 1042.18 251.637C1038.84 251.206 1035.39 250.991 1032.37 250.991C1012.12 250.991 997.247 264.998 997.247 285.363V366.07C997.247 374.474 992.722 379 984.317 379H964.275C955.871 379 951.345 374.474 951.345 366.07V226.423ZM1181.96 262.628C1174.63 263.059 1171.29 259.611 1166.66 253.577C1162.03 247.758 1154.16 243.879 1143.49 243.879C1129.27 243.879 1118.06 250.344 1118.17 260.257C1118.06 268.231 1123.78 273.511 1139.18 276.851L1169.14 282.885C1201.25 289.458 1216.87 303.789 1216.98 327.71C1216.87 360.359 1186.16 382.233 1143.28 382.233C1106.21 382.233 1081.21 368.333 1071.84 344.843C1068.39 336.438 1073.67 330.727 1082.61 330.296L1102.33 329.219C1109.77 328.788 1113.22 332.451 1117.63 338.593C1122.81 345.597 1131.64 349.153 1143.39 349.153C1159.44 349.153 1170.11 342.149 1170.32 332.343C1170.11 324.046 1163.54 318.767 1149.1 315.857L1120.44 310.146C1088.11 303.681 1072.49 287.626 1072.59 262.843C1072.49 230.949 1100.39 211.338 1142.74 211.338C1177.87 211.338 1200.82 224.591 1209.65 246.896C1212.99 255.408 1207.93 261.011 1198.99 261.55L1181.96 262.628ZM1321.31 382.233C1270.35 382.233 1239.2 349.476 1239.2 297.001C1239.2 245.926 1270.78 211.338 1319.48 211.338C1363.23 211.338 1397.28 239.138 1397.28 295.384C1397.28 303.574 1392.75 307.991 1384.35 307.991H1284.57V308.099C1284.57 332.774 1299.11 347.967 1322.07 347.967C1333.16 347.967 1342.43 344.519 1348.47 337.731C1353.31 332.128 1357.19 329.003 1364.41 329.434L1381.44 330.619C1390.6 331.266 1395.66 336.007 1392.75 342.903C1382.51 367.04 1356.98 382.233 1321.31 382.233ZM1284.57 279.545H1354.07C1353.96 259.826 1340.17 245.603 1320.23 245.603C1299.87 245.603 1285.54 260.688 1284.57 279.545ZM1417.64 227.932C1415.27 218.988 1419.37 213.493 1428.63 213.493H1448.46C1456.22 213.493 1460.96 217.156 1462.68 224.807L1485.74 324.693H1487.25L1511.28 224.699C1513.11 217.049 1517.74 213.493 1525.5 213.493H1548.02C1555.78 213.493 1560.52 217.156 1562.35 224.699L1586.71 324.046H1588.11L1610.73 224.807C1612.46 217.264 1617.2 213.493 1624.96 213.493H1644.68C1653.94 213.493 1658.14 218.988 1655.77 227.932L1617.74 368.009C1615.69 375.444 1610.95 379 1603.3 379H1577.55C1569.9 379 1565.15 375.444 1563.11 368.009L1537.68 274.911H1535.63L1510.2 368.009C1508.15 375.444 1503.41 379 1495.76 379H1470.12C1462.47 379 1457.73 375.444 1455.68 368.009L1417.64 227.932ZM1684.14 226.423C1684.14 218.018 1688.67 213.493 1697.07 213.493H1715.71C1724.12 213.493 1728.64 218.018 1728.64 226.423V242.37H1730.37C1736.4 221.897 1751.59 211.122 1770.13 211.122C1770.88 211.122 1771.74 211.122 1772.6 211.23C1780.58 211.553 1784.56 216.833 1784.56 224.807V239.569C1784.56 248.404 1781.12 252.391 1774.97 251.637C1771.63 251.206 1768.19 250.991 1765.17 250.991C1744.91 250.991 1730.04 264.998 1730.04 285.363V366.07C1730.04 374.474 1725.52 379 1717.11 379H1697.07C1688.67 379 1684.14 374.474 1684.14 366.07V226.423ZM1831.36 192.158C1817.78 192.158 1806.57 181.706 1806.57 168.883C1806.57 156.169 1817.78 145.717 1831.36 145.717C1845.04 145.717 1856.25 156.169 1856.25 168.883C1856.25 181.706 1845.04 192.158 1831.36 192.158ZM1808.3 366.07V226.423C1808.3 218.018 1812.82 213.493 1821.23 213.493H1841.27C1849.67 213.493 1854.2 218.018 1854.2 226.423V366.07C1854.2 374.474 1849.67 379 1841.27 379H1821.23C1812.82 379 1808.3 374.474 1808.3 366.07ZM1965.53 444.513C1929.01 444.513 1905.19 431.044 1894.85 411.864C1890.54 403.783 1895.39 397.641 1904.33 396.456L1921.79 394.085C1929.01 393.116 1932.89 396.133 1937.95 401.52C1943.55 407.447 1952.71 411.541 1966.61 411.541C1986.55 411.541 2001.09 402.705 2001.09 379.97V349.691H1999.15C1993.12 363.376 1978.36 376.629 1951.96 376.629C1914.68 376.629 1884.83 350.984 1884.83 295.923C1884.83 239.569 1915.54 211.338 1951.85 211.338C1979.54 211.338 1993.01 227.824 1999.15 241.293H2000.88V226.423C2000.88 218.018 2005.4 213.493 2013.81 213.493H2033.53C2041.93 213.493 2046.46 218.018 2046.46 226.423V380.616C2046.46 422.963 2012.84 444.513 1965.53 444.513ZM1931.7 295.708C1931.7 324.262 1943.98 342.149 1966.5 342.149C1988.59 342.149 2001.31 324.908 2001.31 295.708C2001.31 266.722 1988.81 247.866 1966.5 247.866C1943.77 247.866 1931.7 267.584 1931.7 295.708ZM2128.89 366.07C2128.89 374.474 2124.36 379 2115.96 379H2095.91C2087.51 379 2082.98 374.474 2082.98 366.07V171.254C2082.98 162.849 2087.51 158.324 2095.91 158.324H2114.66C2123.07 158.324 2127.59 162.849 2127.59 171.254V242.694H2129.53C2137.08 223.191 2153.89 211.338 2178.99 211.338C2213.47 211.338 2236.32 234.828 2236.21 273.618V366.07C2236.21 374.474 2231.68 379 2223.28 379H2203.24C2194.83 379 2190.31 374.474 2190.31 366.07V281.808C2190.41 261.442 2179.42 249.482 2160.78 249.482C2142.03 249.482 2128.99 261.981 2128.89 283.316V366.07ZM2360.37 235.043C2360.37 243.448 2355.84 247.973 2347.43 247.973H2329.22V328.141C2329.22 340.856 2335.58 344.304 2344.74 344.304H2345.82C2352.71 343.981 2356.92 346.243 2358.32 353.032L2360.8 364.561C2362.52 372.75 2359.29 378.569 2351.1 379.97C2347.54 380.616 2343.23 381.047 2338.49 381.263C2305.2 382.664 2283.11 366.609 2283.32 334.175V247.973H2273.62C2265.22 247.973 2260.69 243.448 2260.69 235.043V226.423C2260.69 218.018 2265.22 213.493 2273.62 213.493H2283.32V186.77C2283.32 178.366 2287.85 173.84 2296.25 173.84H2316.29C2324.7 173.84 2329.22 178.366 2329.22 186.77V213.493H2347.43C2355.84 213.493 2360.37 218.018 2360.37 226.423V235.043Z" fill="white"/>
<path fill-rule="evenodd" clip-rule="evenodd" d="M0 129.578C0 58.0138 58.0139 0 129.578 0H349.422C420.986 0 479 58.0138 479 129.578C479 153.179 472.69 175.307 461.665 194.366C459.244 190.181 456.596 186.144 453.737 182.272C430.14 204.18 392.202 218.389 349.423 218.389H129.577C86.7977 218.389 48.8602 204.18 25.2628 182.272C22.4042 186.144 19.756 190.181 17.3352 194.366C6.31007 175.307 0 153.179 0 129.578ZM23.8848 334.136C23.2901 333.299 22.705 332.455 22.1298 331.603C8.1582 310.922 0 285.992 0 259.155C0 235.553 6.31007 213.425 17.3352 194.366C39.7398 233.097 81.6156 259.155 129.578 259.155H349.422C397.384 259.155 439.26 233.097 461.665 194.366C472.69 213.425 479 235.553 479 259.155C479 287.096 470.156 312.972 455.115 334.136C451.61 329.203 447.767 324.526 443.622 320.139C419.999 337.274 386.533 347.966 349.423 347.966H129.577C92.4671 347.966 59.0007 337.274 35.3781 320.139C31.2327 324.526 27.3904 329.203 23.8848 334.136ZM0 409.116C0 381.175 8.84376 355.299 23.8848 334.136C47.3672 367.177 85.9551 388.733 129.578 388.733H349.422C393.045 388.733 431.633 367.177 455.115 334.136C470.156 355.299 479 381.175 479 409.116C479 458.165 420.986 497.927 349.423 497.927H129.577C58.0136 497.927 0 458.165 0 409.116Z" fill="#AC2954"/>
</svg>
